<?xml version="1.0" standalone="no"?>
<!DOCTYPE svg PUBLIC "-//W3C//DTD SVG 20010904//EN"
 "http://www.w3.org/TR/2001/REC-SVG-20010904/DTD/svg10.dtd">
<svg version="1.0" xmlns="http://www.w3.org/2000/svg"
 width="141.000000pt" height="145.000000pt" viewBox="0 0 141.000000 145.000000"
 preserveAspectRatio="xMidYMid meet">

<g transform="translate(0.000000,145.000000) scale(0.100000,-0.100000)"
fill="#000000" stroke="none">
<path d="M156 1294 c-14 -14 -16 -78 -16 -558 0 -493 2 -545 17 -557 13 -11
115 -15 548 -17 527 -2 532 -2 558 18 l27 21 0 533 c0 465 -2 534 -16 554
l-15 22 -544 0 c-481 0 -545 -2 -559 -16z m1098 -10 c14 -14 16 -77 16 -549 0
-518 -1 -535 -19 -545 -27 -14 -1045 -14 -1072 0 -18 10 -19 27 -19 550 0 503
1 540 18 549 11 7 203 11 539 11 461 0 523 -2 537 -16z"/>
<path d="M931 1059 c-19 -21 -21 -35 -21 -145 0 -86 -4 -125 -13 -132 -18 -16
-143 -35 -174 -27 l-26 6 6 155 5 154 -23 0 c-23 0 -23 -2 -27 -121 -3 -118
-4 -121 -31 -145 -37 -31 -78 -31 -116 2 -30 25 -42 55 -83 209 -11 42 -18 50
-39 53 l-26 3 33 -95 c50 -145 75 -182 137 -205 39 -15 34 -27 -20 -51 -88
-39 -128 -98 -125 -183 4 -87 63 -141 148 -134 102 7 156 82 162 225 5 98 2
96 128 106 l82 6 4 -152 c3 -84 9 -161 13 -170 5 -14 19 -18 53 -18 l45 0 -20
23 c-40 44 -63 149 -63 285 0 77 3 90 30 131 16 26 36 73 44 105 15 55 15 62
-2 95 -21 44 -52 51 -81 20z m63 -70 c-2 -50 -29 -113 -44 -104 -13 8 -13 97
0 130 7 17 16 25 28 23 13 -3 17 -13 16 -49z m-334 -224 c0 -8 -7 -15 -15 -15
-8 0 -15 7 -15 15 0 8 7 15 15 15 8 0 15 -7 15 -15z m2 -100 c-7 -110 -40
-183 -98 -210 -46 -21 -98 -6 -119 35 -19 37 -19 103 0 140 26 51 111 90 185
87 l35 -2 -3 -50z"/>
</g>
</svg>
